<svg width="24" height="24" viewBox="0 0 24 24" fill="none" xmlns="http://www.w3.org/2000/svg">
<path d="M23.2969 24H0.703125C0.314484 24 0 23.6855 0 23.2969V2.20312C0 1.81448 0.314484 1.5 0.703125 1.5H6.375C6.76364 1.5 7.07812 1.81448 7.07812 2.20312V2.90625H8.48438V2.20312C8.48438 1.81448 8.79886 1.5 9.1875 1.5H14.8125C15.2011 1.5 15.5156 1.81448 15.5156 2.20312V2.90625H16.9219V2.20312C16.9219 1.81448 17.2364 1.5 17.625 1.5H23.2969C23.6855 1.5 24 1.81448 24 2.20312V23.2969C24 23.6855 23.6855 24 23.2969 24Z" fill="#DDDDDD"/>
<path d="M23.2969 1.5H17.625C17.2364 1.5 16.9219 1.81448 16.9219 2.20312V2.90625H15.5156V2.20312C15.5156 1.81448 15.2011 1.5 14.8125 1.5H12V24H23.2969C23.6855 24 24 23.6855 24 23.2969V2.20312C24 1.81448 23.6855 1.5 23.2969 1.5Z" fill="#D3D3D3"/>
<path d="M3.5625 21.1875C3.95083 21.1875 4.26562 20.8727 4.26562 20.4844C4.26562 20.096 3.95083 19.7812 3.5625 19.7812C3.17417 19.7812 2.85938 20.096 2.85938 20.4844C2.85938 20.8727 3.17417 21.1875 3.5625 21.1875Z" fill="#B5B5B5"/>
<path d="M6.375 21.1875C6.76333 21.1875 7.07812 20.8727 7.07812 20.4844C7.07812 20.096 6.76333 19.7812 6.375 19.7812C5.98667 19.7812 5.67188 20.096 5.67188 20.4844C5.67188 20.8727 5.98667 21.1875 6.375 21.1875Z" fill="#B5B5B5"/>
<path d="M17.625 7.125C18.0133 7.125 18.3281 6.8102 18.3281 6.42188C18.3281 6.03355 18.0133 5.71875 17.625 5.71875C17.2367 5.71875 16.9219 6.03355 16.9219 6.42188C16.9219 6.8102 17.2367 7.125 17.625 7.125Z" fill="#ABABAB"/>
<path d="M20.4375 7.125C20.8258 7.125 21.1406 6.8102 21.1406 6.42188C21.1406 6.03355 20.8258 5.71875 20.4375 5.71875C20.0492 5.71875 19.7344 6.03355 19.7344 6.42188C19.7344 6.8102 20.0492 7.125 20.4375 7.125Z" fill="#ABABAB"/>
<path d="M9.1875 4.3125H6.375C5.98636 4.3125 5.67188 3.99802 5.67188 3.60938V0.703125C5.67188 0.314484 5.98636 0 6.375 0H9.1875C9.57614 0 9.89062 0.314484 9.89062 0.703125V3.60938C9.89062 3.99802 9.57614 4.3125 9.1875 4.3125Z" fill="#A1A1A1"/>
<path d="M17.625 4.3125H14.8125C14.4239 4.3125 14.1094 3.99802 14.1094 3.60938V0.703125C14.1094 0.314484 14.4239 0 14.8125 0H17.625C18.0136 0 18.3281 0.314484 18.3281 0.703125V3.60938C18.3281 3.99802 18.0136 4.3125 17.625 4.3125Z" fill="#979797"/>
<path d="M13.4062 19.7806C13.0175 19.7806 12.703 19.4662 12.703 19.0775V16.265C12.703 15.8771 12.3872 15.5619 11.9999 15.5619C11.6126 15.5619 11.2968 15.8771 11.2968 16.265V19.0775C11.2968 19.4662 10.9823 19.7806 10.5937 19.7806C8.65459 19.7806 7.07804 18.2034 7.07804 16.265C7.07804 15.2858 6.81713 14.3582 6.3241 13.5816C5.68276 12.5736 5.50698 11.3665 5.82971 10.1834C6.19777 8.82248 7.27304 7.72176 8.63396 7.31254C9.78751 6.96581 10.9905 7.11 11.9999 7.70254C13.0134 7.10995 14.2123 6.96647 15.3645 7.31254C16.7254 7.7204 17.8007 8.82112 18.1701 10.1841C18.4929 11.3665 18.3171 12.5737 17.6757 13.5816C17.1827 14.3582 16.9218 15.2858 16.9218 16.265C16.9218 18.2034 15.3452 19.7806 13.4062 19.7806Z" fill="#BFBFBF"/>
<path d="M20.4375 21.1875H17.625C17.2364 21.1875 16.9219 20.873 16.9219 20.4844C16.9219 20.0957 17.2364 19.7812 17.625 19.7812H20.4375C20.8261 19.7812 21.1406 20.0957 21.1406 20.4844C21.1406 20.873 20.8261 21.1875 20.4375 21.1875Z" fill="#ABABAB"/>
<path d="M6.375 7.125H3.5625C3.17386 7.125 2.85938 6.81052 2.85938 6.42188C2.85938 6.03323 3.17386 5.71875 3.5625 5.71875H6.375C6.76364 5.71875 7.07812 6.03323 7.07812 6.42188C7.07812 6.81052 6.76364 7.125 6.375 7.125Z" fill="#B5B5B5"/>
<path d="M12.7031 16.2647V19.0772C12.7031 19.4659 13.0176 19.7803 13.4062 19.7803C15.3453 19.7803 16.9219 18.2031 16.9219 16.2647C16.9219 15.2856 17.1828 14.3579 17.6758 13.5813C18.3172 12.5733 18.4929 11.3662 18.1702 10.1838C17.8008 8.82083 16.7255 7.72011 15.3645 7.31225C14.2124 6.96618 13.0135 7.10971 12 7.70225V15.5616C12.3873 15.5616 12.7031 15.8768 12.7031 16.2647Z" fill="#B5B5B5"/>
</svg>
