<svg width="24" height="24" viewBox="0 0 24 24" fill="none" xmlns="http://www.w3.org/2000/svg">
<path d="M21.1757 15.7711V23.2959C21.1757 23.6841 20.8607 23.9991 20.4726 23.9991H11.9179L8.82788 17.6072L11.9179 11.2148H15.5333L16.2365 11.9138L16.9396 11.2261C17.2602 11.2486 17.5719 11.3039 17.871 11.3897C19.7769 11.9348 21.1757 13.6927 21.1757 15.7711Z" fill="#BFBFBF"/>
<path d="M11.918 11.2148V23.9991H3.52734C3.13922 23.9991 2.82422 23.6841 2.82422 23.2959V15.7711C2.82422 13.7039 4.20797 11.9541 6.09797 11.3991C6.40641 11.3081 6.72844 11.2491 7.06031 11.2261L7.76344 11.7178L8.46656 11.2148H11.918Z" fill="#C9C9C9"/>
<path d="M15.1983 11.2158L11.918 16.6092L10.6875 12L11.918 9.04688L15.1983 11.2158Z" fill="#D3D3D3"/>
<path d="M11.918 9.04688V16.6092L8.80176 11.2158L11.918 9.04688Z" fill="#DDDDDD"/>
<path d="M8.46655 11.2148V15.9352H7.0603V11.2261C7.16624 11.2186 7.27312 11.2148 7.38093 11.2148H8.46655Z" fill="#979797"/>
<path d="M16.9397 11.2261V17.3414C16.9397 17.73 16.6247 18.0445 16.2366 18.0445C15.848 18.0445 15.5334 17.73 15.5334 17.3414V11.2148H16.6191C16.7269 11.2148 16.8338 11.2186 16.9397 11.2261Z" fill="#979797"/>
<path d="M7.76377 18.7482C6.98831 18.7482 6.35742 18.1174 6.35742 17.3419C6.35742 16.5664 6.98827 15.9355 7.76377 15.9355C8.53927 15.9355 9.17011 16.5664 9.17011 17.3419C9.17011 18.1174 8.53922 18.7482 7.76377 18.7482Z" fill="#23272B"/>
<path d="M7.76367 19.4512C6.60056 19.4512 5.6543 18.5049 5.6543 17.3418C5.6543 16.1787 6.60056 15.2324 7.76367 15.2324C8.92678 15.2324 9.87305 16.1787 9.87305 17.3418C9.87305 18.5049 8.92678 19.4512 7.76367 19.4512ZM7.76367 16.6387C7.37597 16.6387 7.06055 16.9541 7.06055 17.3418C7.06055 17.7295 7.37597 18.0449 7.76367 18.0449C8.15138 18.0449 8.4668 17.7295 8.4668 17.3418C8.4668 16.9541 8.15138 16.6387 7.76367 16.6387Z" fill="white"/>
<path d="M17.3843 6.30314C17.3838 6.29944 11.9186 4.05398 11.9186 4.05398L10.2058 2.18456L11.9186 0.00046875C11.9455 0 11.8912 0 11.9186 0C19.7974 0 17.4271 6.00844 17.3843 6.30314Z" fill="#BFBFBF"/>
<path d="M11.9185 0V4.05352C11.9185 4.05352 6.61598 6.29897 6.61552 6.30267C6.57277 6.00891 4.13827 0.0409219 11.9185 0Z" fill="#C9C9C9"/>
<path d="M17.4394 7.07682C17.4394 8.04127 17.1884 8.94671 16.7474 9.73224L11.9186 9.72619L10.6985 6.55439L11.9186 4.05469C15.0639 4.05469 16.9426 4.03749 17.3828 6.29316C17.4199 6.54924 17.4394 6.81047 17.4394 7.07682Z" fill="#D3D3D3"/>
<path d="M11.9185 4.05469V9.72614L7.24543 9.72056C6.80898 8.93784 6.5603 8.03658 6.5603 7.07677C6.5603 6.81042 6.57985 6.54923 6.61702 6.29311C7.05347 4.05698 8.82343 4.05469 11.9185 4.05469Z" fill="#DDDDDD"/>
<path d="M16.7474 9.73106C15.8173 11.3923 14.0395 12.5152 12 12.5152C11.973 12.5152 11.9456 12.5152 11.9186 12.5143L11.1633 10.2484L11.9186 7.75195L16.7474 9.73106Z" fill="#BFBFBF"/>
<path d="M11.9184 7.75195V12.5143C9.90819 12.485 8.16144 11.3648 7.24536 9.71944L11.9184 7.75195Z" fill="#C9C9C9"/>
</svg>
