<svg width="20" height="20" viewBox="0 0 20 20" fill="none" xmlns="http://www.w3.org/2000/svg">
<path d="M18.5718 0H16.6671C15.8781 0 15.2385 0.639609 15.2385 1.42855V3.33332C15.2385 4.12227 15.8781 4.76188 16.6671 4.76188H18.5718C19.3608 4.76188 20.0004 4.12227 20.0004 3.33332V1.42855C20.0004 0.639609 19.3608 0 18.5718 0Z" fill="#ABABAB"/>
<path d="M10.9522 0H9.04745C8.25851 0 7.6189 0.639609 7.6189 1.42855V3.33332C7.6189 4.12227 8.25851 4.76188 9.04745 4.76188H10.9522C11.7412 4.76188 12.3808 4.12227 12.3808 3.33332V1.42855C12.3808 0.639609 11.7412 0 10.9522 0Z" fill="#BFBFBF"/>
<path d="M3.33332 0H1.42855C0.639609 0 0 0.639609 0 1.42855V3.33332C0 4.12227 0.639609 4.76188 1.42855 4.76188H3.33332C4.12227 4.76188 4.76188 4.12227 4.76188 3.33332V1.42855C4.76191 0.639609 4.1223 0 3.33332 0Z" fill="#DDDDDD"/>
<path d="M18.5718 15.2383H16.6671C15.8781 15.2383 15.2385 15.8779 15.2385 16.6668V18.5716C15.2385 19.3605 15.8781 20.0002 16.6671 20.0002H18.5718C19.3608 20.0002 20.0004 19.3606 20.0004 18.5716V16.6669C20.0004 15.8779 19.3608 15.2383 18.5718 15.2383Z" fill="#979797"/>
<path d="M10.9522 15.2383H9.04745C8.25851 15.2383 7.6189 15.8779 7.6189 16.6668V18.5716C7.6189 19.3605 8.25851 20.0002 9.04745 20.0002H10.9522C11.7412 20.0002 12.3808 19.3605 12.3808 18.5716V16.6668C12.3808 15.8779 11.7412 15.2383 10.9522 15.2383Z" fill="#A1A1A1"/>
<path d="M3.33332 15.2383H1.42855C0.639609 15.2383 0 15.8779 0 16.6669V18.5716C0 19.3606 0.639609 20.0002 1.42855 20.0002H3.33332C4.12227 20.0002 4.76188 19.3606 4.76188 18.5716V16.6669C4.76191 15.8779 4.1223 15.2383 3.33332 15.2383Z" fill="#ABABAB"/>
<path d="M18.5718 7.61914H16.6671C15.8781 7.61914 15.2385 8.25875 15.2385 9.0477V10.9525C15.2385 11.7414 15.8781 12.381 16.6671 12.381H18.5718C19.3608 12.381 20.0004 11.7414 20.0004 10.9525V9.0477C20.0004 8.25875 19.3608 7.61914 18.5718 7.61914Z" fill="#A1A1A1"/>
<path d="M10.9522 7.61914H9.04745C8.25851 7.61914 7.6189 8.25875 7.6189 9.0477V10.9525C7.6189 11.7414 8.25851 12.381 9.04745 12.381H10.9522C11.7412 12.381 12.3808 11.7414 12.3808 10.9525V9.0477C12.3808 8.25875 11.7412 7.61914 10.9522 7.61914Z" fill="#ABABAB"/>
<path d="M3.33332 7.61914H1.42855C0.639609 7.61914 0 8.25875 0 9.0477V10.9525C0 11.7414 0.639609 12.381 1.42855 12.381H3.33332C4.12227 12.381 4.76188 11.7414 4.76188 10.9525V9.0477C4.76191 8.25875 4.1223 7.61914 3.33332 7.61914Z" fill="#BFBFBF"/>
</svg>
