<svg width="20" height="24" viewBox="0 0 20 24" fill="none" xmlns="http://www.w3.org/2000/svg">
<path d="M19.1523 2.78297V21.217C19.1523 22.7517 17.9036 24 16.3694 24H10.7031L10 23.8268L9.29688 24H3.63063C2.09641 24 0.847656 22.7517 0.847656 21.217V2.78297C0.847656 1.24828 2.09641 0 3.63063 0H9.31066L9.99072 0.09375L10.7031 0H16.3694C17.9036 0 19.1523 1.24828 19.1523 2.78297Z" fill="#DDDDDD"/>
<path d="M19.1523 2.78297V21.217C19.1523 22.7517 17.9036 24 16.3694 24H10V0L10.3446 0.0457031L10.7031 0H16.3694C17.9036 0 19.1523 1.24828 19.1523 2.78297Z" fill="#D3D3D3"/>
<path d="M5.79297 7.51562C6.95794 7.51562 7.90234 6.57123 7.90234 5.40625C7.90234 4.24127 6.95794 3.29688 5.79297 3.29688C4.62799 3.29688 3.68359 4.24127 3.68359 5.40625C3.68359 6.57123 4.62799 7.51562 5.79297 7.51562Z" fill="#ABABAB"/>
<path d="M14.2305 7.51562C15.3954 7.51562 16.3398 6.57123 16.3398 5.40625C16.3398 4.24127 15.3954 3.29688 14.2305 3.29688C13.0655 3.29688 12.1211 4.24127 12.1211 5.40625C12.1211 6.57123 13.0655 7.51562 14.2305 7.51562Z" fill="#A1A1A1"/>
<path d="M5.79297 14.1094C6.95794 14.1094 7.90234 13.165 7.90234 12C7.90234 10.835 6.95794 9.89062 5.79297 9.89062C4.62799 9.89062 3.68359 10.835 3.68359 12C3.68359 13.165 4.62799 14.1094 5.79297 14.1094Z" fill="#ABABAB"/>
<path d="M14.2305 14.1094C15.3954 14.1094 16.3398 13.165 16.3398 12C16.3398 10.835 15.3954 9.89062 14.2305 9.89062C13.0655 9.89062 12.1211 10.835 12.1211 12C12.1211 13.165 13.0655 14.1094 14.2305 14.1094Z" fill="#A1A1A1"/>
<path d="M5.79297 20.7031C6.95794 20.7031 7.90234 19.7587 7.90234 18.5938C7.90234 17.4288 6.95794 16.4844 5.79297 16.4844C4.62799 16.4844 3.68359 17.4288 3.68359 18.5938C3.68359 19.7587 4.62799 20.7031 5.79297 20.7031Z" fill="#ABABAB"/>
<path d="M14.2305 20.7031C15.3954 20.7031 16.3398 19.7587 16.3398 18.5938C16.3398 17.4288 15.3954 16.4844 14.2305 16.4844C13.0655 16.4844 12.1211 17.4288 12.1211 18.5938C12.1211 19.7587 13.0655 20.7031 14.2305 20.7031Z" fill="#A1A1A1"/>
<path d="M10.7031 0V4.27594C10.7031 4.66406 10.3881 4.97906 10 4.97906C9.61187 4.97906 9.29688 4.66406 9.29688 4.27594V0H10.7031Z" fill="#BFBFBF"/>
<path d="M10.7031 7.41602V10.4526C10.7031 10.8407 10.3881 11.1557 10 11.1557C9.61187 11.1557 9.29688 10.8407 9.29688 10.4526V7.41602C9.29688 7.02742 9.61187 6.71289 10 6.71289C10.3881 6.71289 10.7031 7.02742 10.7031 7.41602Z" fill="#BFBFBF"/>
<path d="M10.7031 13.5469V16.5834C10.7031 16.972 10.3881 17.2866 10 17.2866C9.61187 17.2866 9.29688 16.972 9.29688 16.5834V13.5469C9.29688 13.1587 9.61187 12.8438 10 12.8438C10.3881 12.8438 10.7031 13.1587 10.7031 13.5469Z" fill="#BFBFBF"/>
<path d="M10.7031 19.7246V24.0005H9.29688V19.7246C9.29688 19.3365 9.61187 19.0215 10 19.0215C10.3881 19.0215 10.7031 19.3365 10.7031 19.7246Z" fill="#BFBFBF"/>
<path d="M10.7031 0V4.27594C10.7031 4.66406 10.3881 4.97906 10 4.97906V0H10.7031Z" fill="#BFBFBF"/>
<path d="M10.7031 7.41602V10.4526C10.7031 10.8407 10.3881 11.1557 10 11.1557V6.71289C10.3881 6.71289 10.7031 7.02742 10.7031 7.41602Z" fill="#BFBFBF"/>
<path d="M10.7031 13.5469V16.5834C10.7031 16.972 10.3881 17.2866 10 17.2866V12.8438C10.3881 12.8438 10.7031 13.1587 10.7031 13.5469Z" fill="#BFBFBF"/>
<path d="M10.7031 19.7246V24.0005H10V19.0215C10.3881 19.0215 10.7031 19.3365 10.7031 19.7246Z" fill="#BFBFBF"/>
</svg>
