<svg width="24" height="24" viewBox="0 0 24 24" fill="none" xmlns="http://www.w3.org/2000/svg">
<mask id="mask0_5415_17121" style="mask-type:alpha" maskUnits="userSpaceOnUse" x="0" y="0" width="24" height="24">
<rect width="24" height="24" fill="#D9D9D9"/>
</mask>
<g mask="url(#mask0_5415_17121)">
<path d="M11.9999 22C10.4332 21.8 9.03324 21.4 7.7999 20.8C6.56657 20.2 5.52057 19.4167 4.6619 18.45C3.8039 17.4833 3.1499 16.3623 2.6999 15.087C2.2499 13.8123 2.0249 12.4 2.0249 10.85C3.85824 11.0333 5.40824 11.3667 6.6749 11.85C7.94157 12.3333 8.9709 13.0167 9.7629 13.9C10.5542 14.7833 11.1249 15.8873 11.4749 17.212C11.8249 18.5373 11.9999 20.1333 11.9999 22ZM11.9999 13.575C11.6166 12.9917 11.0959 12.4167 10.4379 11.85C9.77924 11.2833 9.01657 10.7667 8.1499 10.3C8.2499 9.6 8.41657 8.875 8.6499 8.125C8.88323 7.375 9.16657 6.63733 9.4999 5.912C9.83324 5.18733 10.2122 4.49167 10.6369 3.825C11.0622 3.15833 11.5166 2.55 11.9999 2C12.4832 2.55 12.9376 3.15833 13.3629 3.825C13.7876 4.49167 14.1666 5.18733 14.4999 5.912C14.8332 6.63733 15.1166 7.375 15.3499 8.125C15.5832 8.875 15.7499 9.6 15.8499 10.3C14.9832 10.75 14.2206 11.2583 13.5619 11.825C12.9039 12.3917 12.3832 12.975 11.9999 13.575ZM13.9999 21.6C13.9666 20.4333 13.8792 19.3543 13.7379 18.363C13.5959 17.371 13.3749 16.4333 13.0749 15.55C13.8582 14.2 14.9372 13.1 16.3119 12.25C17.6872 11.4 19.5749 10.9333 21.9749 10.85C21.9916 13.4833 21.2876 15.754 19.8629 17.662C18.4376 19.5707 16.4832 20.8833 13.9999 21.6Z" fill="#0040FF"/>
</g>
</svg>
