<svg width="24" height="24" viewBox="0 0 24 24" fill="none" xmlns="http://www.w3.org/2000/svg">
<path d="M22.4503 15.848L5.94428 18.7585C4.92447 18.9383 3.952 18.2573 3.77219 17.2375L1.95531 6.93362C1.7755 5.91381 2.45645 4.94134 3.47622 4.76153L19.9822 1.85106C21.002 1.67125 21.9745 2.3522 22.1543 3.37197L23.9712 13.6759C24.151 14.6957 23.4701 15.6682 22.4503 15.848Z" fill="#BFBFBF"/>
<path d="M19.9822 1.85106L11.7292 3.3063L14.1973 17.3033L22.4503 15.848C23.4701 15.6682 24.151 14.6957 23.9712 13.6759L22.1543 3.37202C21.9745 2.3522 21.0021 1.67125 19.9822 1.85106Z" fill="#ABABAB"/>
<path d="M18.2812 22.1762H1.875C0.839484 22.1762 0 21.3368 0 20.3012V10.0957C0 9.06019 0.839484 8.2207 1.875 8.2207H18.2812C19.3168 8.2207 20.1562 9.06019 20.1562 10.0957V20.3012C20.1562 21.3368 19.3168 22.1762 18.2812 22.1762Z" fill="#D3D3D3"/>
<path d="M18.2812 8.2207H10.0781V22.1762H18.2812C19.3168 22.1762 20.1562 21.3368 20.1562 20.3012V10.0957C20.1562 9.06019 19.3168 8.2207 18.2812 8.2207Z" fill="#C9C9C9"/>
<path d="M0 11.4121H20.1562V14.602H0V11.4121Z" fill="#DDDDDD"/>
<path d="M5.58218 19.082H2.39233C2.00402 19.082 1.68921 19.3968 1.68921 19.7852C1.68921 20.1735 2.00402 20.4883 2.39233 20.4883H5.58218C5.97049 20.4883 6.2853 20.1735 6.2853 19.7852C6.2853 19.3968 5.97049 19.082 5.58218 19.082Z" fill="#A1A1A1"/>
<path d="M10.0781 11.4121H20.1562V14.602H10.0781V11.4121Z" fill="#A1A1A1"/>
</svg>
