<svg width="24" height="24" viewBox="0 0 24 24" fill="none" xmlns="http://www.w3.org/2000/svg">
<path d="M16.1625 7.83751C15.8879 7.56287 15.8879 7.11789 16.1625 6.84325L22.7998 0.20598C23.0745 -0.0686602 23.5195 -0.0686602 23.7941 0.20598C24.0687 0.480621 24.0687 0.925606 23.7941 1.20025L17.1568 7.83751C16.8821 8.1122 16.4372 8.1122 16.1625 7.83751Z" fill="#DDDDDD"/>
<path d="M17.1566 7.83666L23.7939 1.19934C24.0685 0.924703 24.0685 0.479719 23.7939 0.205078L16.1624 7.83666C16.437 8.11134 16.8819 8.11134 17.1566 7.83666Z" fill="#D3D3D3"/>
<path d="M15.1737 10.8232L13.1769 8.82639C12.898 8.55039 12.9053 8.10086 13.181 7.828L14.1794 6.8447C14.9636 6.05645 16.3561 6.05092 17.1512 6.84882C17.927 7.61912 18.0073 8.92975 17.1621 9.81376L16.172 10.819C15.8991 11.0948 15.4524 11.1018 15.1737 10.8232Z" fill="#ABABAB"/>
<path d="M15.1736 10.8239C15.4523 11.1026 15.8991 11.0955 16.172 10.8198L17.1622 9.81455C18.0073 8.93048 17.9269 7.61986 17.1512 6.84961L14.1753 9.82552L15.1736 10.8239Z" fill="#A1A1A1"/>
<path d="M1.20435 19.8183L4.23266 16.79C4.5073 16.5153 4.95228 16.5153 5.22692 16.79L7.20997 18.773C7.48461 19.0477 7.48461 19.4926 7.20997 19.7673L4.18166 22.7956L1.20435 19.8183Z" fill="#DDDDDD"/>
<path d="M4.18177 22.7953L7.21008 19.767C7.48472 19.4924 7.48472 19.0474 7.21008 18.7728L6.21854 17.7812L2.69312 21.3067L4.18177 22.7953Z" fill="#D3D3D3"/>
<path d="M16.1625 9.8339L14.1655 7.83707C13.35 7.00743 12.014 7.00743 11.1983 7.83707L3.23901 15.7964L8.20303 20.7605L9.69365 19.2698L9.60928 18.187L10.6921 18.2714L11.6906 17.287L11.6062 16.2042L12.6749 16.2885L13.6734 15.2901L13.589 14.2213L14.6719 14.3058L16.1625 12.8011C16.9921 11.9855 16.9921 10.6495 16.1625 9.8339Z" fill="#BFBFBF"/>
<path d="M8.20318 20.7609L9.6938 19.2703L9.60943 18.1874L10.6923 18.2718L11.6908 17.2875L11.6063 16.2046L12.6751 16.289L13.6735 15.2905L13.5892 14.2217L14.672 14.3062L16.1626 12.8015C16.9923 11.9858 16.9923 10.6499 16.1626 9.83428L15.1641 8.83594L5.72119 18.2789L8.20318 20.7609Z" fill="#ABABAB"/>
<path d="M10.6921 18.2711L9.6937 19.2695L8.20308 17.779C7.93589 17.5118 7.93589 17.0618 8.20308 16.7805C8.48433 16.5133 8.93437 16.5133 9.20156 16.7805L10.6921 18.2711Z" fill="#797979"/>
<path d="M12.6749 16.2895L11.6906 17.2879L10.1999 15.7973C9.91871 15.5161 9.91871 15.066 10.1999 14.7988C10.4671 14.5176 10.9171 14.5176 11.1843 14.7988L12.6749 16.2895Z" fill="#797979"/>
<path d="M14.6719 14.3051L13.6734 15.2894L12.1828 13.7988C11.9156 13.5316 11.9156 13.0816 12.1828 12.8144C12.4641 12.5332 12.9 12.5332 13.1813 12.8144L14.6719 14.3051Z" fill="#797979"/>
<path d="M22.5938 17.0953V14.8594H18.375V17.0953C17.5593 17.3765 16.9688 18.164 16.9688 19.0781V20.4844L20.4844 21.8906L24 20.4844V19.0781C24 18.164 23.4094 17.3765 22.5938 17.0953Z" fill="#DDDDDD"/>
<path d="M22.5938 17.0953V14.8594H20.4844V21.8906L24 20.4844V19.0781C24 18.164 23.4094 17.3765 22.5938 17.0953Z" fill="#D3D3D3"/>
<path d="M24 20.4844V23.2969C24 23.6906 23.6907 24 23.2969 24H17.6719C17.2781 24 16.9688 23.6906 16.9688 23.2969V20.4844H24Z" fill="#BFBFBF"/>
<path d="M23.2969 15.5625H17.6719C17.2832 15.5625 16.9688 15.248 16.9688 14.8594C16.9688 14.4707 17.2832 14.1562 17.6719 14.1562H23.2969C23.6855 14.1562 24 14.4707 24 14.8594C24 15.248 23.6855 15.5625 23.2969 15.5625Z" fill="#ABABAB"/>
<path d="M23.2969 15.5625C23.6855 15.5625 24 15.248 24 14.8594C24 14.4707 23.6855 14.1562 23.2969 14.1562H20.4844V15.5625H23.2969Z" fill="#797979"/>
<path d="M8.20833 21.759L2.24138 15.792C1.96674 15.5174 1.96674 15.0724 2.24138 14.7978C2.51602 14.5231 2.96101 14.5231 3.23565 14.7978L9.2026 20.7647C9.47724 21.0394 9.47724 21.4844 9.2026 21.759C8.92796 22.0336 8.48302 22.0336 8.20833 21.759Z" fill="#ABABAB"/>
<path d="M4.183 23.7944L0.20598 19.8174C-0.0686602 19.5428 -0.0686602 19.0978 0.20598 18.8232C0.480621 18.5485 0.925606 18.5485 1.20025 18.8232L5.17731 22.8002C5.45195 23.0749 5.45195 23.5199 5.17731 23.7945C4.90267 24.0691 4.45768 24.0691 4.183 23.7944Z" fill="#ABABAB"/>
<path d="M8.20831 21.759C8.48295 22.0336 8.92793 22.0336 9.20257 21.759C9.47721 21.4843 9.47721 21.0393 9.20257 20.7647L6.21912 17.7812L5.22485 18.7755L8.20831 21.759Z" fill="#A1A1A1"/>
<path d="M4.18311 23.7953C4.45775 24.0699 4.90274 24.0699 5.17738 23.7953C5.45202 23.5207 5.45202 23.0757 5.17738 22.801L3.18885 20.8125L2.19458 21.8068L4.18311 23.7953Z" fill="#A1A1A1"/>
<path d="M20.4844 24H23.2969C23.6907 24 24 23.6906 24 23.2969V20.4844H20.4844V24Z" fill="#ABABAB"/>
</svg>
