<svg width="24" height="24" viewBox="0 0 24 24" fill="none" xmlns="http://www.w3.org/2000/svg">
<path d="M18.7782 17.9758H5.22192C4.83361 17.9758 4.5188 17.661 4.5188 17.2727V12.0008C4.5188 7.87559 7.87486 4.51953 12 4.51953C16.1252 4.51953 19.4813 7.87559 19.4813 12.0008V17.2727C19.4813 17.661 19.1665 17.9758 18.7782 17.9758Z" fill="#C9C9C9"/>
<path d="M19.4813 17.2727V12.0008C19.4813 7.87559 16.1252 4.51953 12 4.51953V17.9758H18.7781C19.1664 17.9758 19.4813 17.661 19.4813 17.2727Z" fill="#DDDDDD"/>
<path d="M14.2595 17.9746H9.74072C9.35241 17.9746 9.0376 17.6598 9.0376 17.2715V11.9996C9.0376 10.3452 10.3838 9.03711 12.0001 9.03711C13.6103 9.03711 14.9626 10.3386 14.9626 11.9996V17.2715C14.9626 17.6598 14.6478 17.9746 14.2595 17.9746Z" fill="#DDDDDD"/>
<path d="M2.20941 12.7031H0.703125C0.314812 12.7031 0 12.3883 0 12C0 11.6117 0.314812 11.2969 0.703125 11.2969H2.20941C2.59772 11.2969 2.91253 11.6117 2.91253 12C2.91253 12.3883 2.59772 12.7031 2.20941 12.7031Z" fill="#DDDDDD"/>
<path d="M23.2968 12.7031H21.7905C21.4022 12.7031 21.0874 12.3883 21.0874 12C21.0874 11.6117 21.4022 11.2969 21.7905 11.2969H23.2968C23.6851 11.2969 23.9999 11.6117 23.9999 12C23.9999 12.3883 23.6851 12.7031 23.2968 12.7031Z" fill="#DDDDDD"/>
<path d="M12 2.91248C11.6117 2.91248 11.2969 2.59767 11.2969 2.20936V0.703125C11.2969 0.314812 11.6117 0 12 0C12.3883 0 12.7031 0.314812 12.7031 0.703125V2.20936C12.7031 2.59767 12.3883 2.91248 12 2.91248Z" fill="#DDDDDD"/>
<path d="M3.16792 7.71356L1.86503 6.96042C1.52884 6.76607 1.41381 6.33599 1.6082 5.99981C1.80255 5.66357 2.23258 5.54859 2.56881 5.74298L3.8717 6.49612C4.20789 6.69046 4.32292 7.12054 4.12853 7.45673C3.95931 7.74951 3.54405 7.93101 3.16792 7.71356Z" fill="#DDDDDD"/>
<path d="M19.8716 7.4567C19.6773 7.12051 19.7923 6.69043 20.1284 6.49609L21.4313 5.74295C21.7675 5.5486 22.1976 5.66359 22.3919 5.99978C22.5863 6.33596 22.4712 6.76604 22.1351 6.96038L20.8322 7.71353C20.4475 7.9359 20.0366 7.74207 19.8716 7.4567Z" fill="#DDDDDD"/>
<path d="M6.49563 3.87286L5.74254 2.56847C5.54834 2.23219 5.66356 1.80215 5.99988 1.608C6.33621 1.41384 6.7662 1.52901 6.96035 1.86534L7.71345 3.16973C7.90765 3.50601 7.79243 3.93605 7.4561 4.1302C7.07196 4.35201 6.66082 4.15898 6.49563 3.87286Z" fill="#DDDDDD"/>
<path d="M16.5438 4.13024C16.2075 3.93609 16.0923 3.50606 16.2865 3.16977L17.0396 1.86538C17.2338 1.52906 17.6637 1.41379 18 1.60804C18.3364 1.8022 18.4516 2.23223 18.2574 2.56851L17.5043 3.8729C17.3348 4.16643 16.9194 4.34713 16.5438 4.13024Z" fill="#DDDDDD"/>
<path d="M14.9625 17.2715V11.9996C14.9625 10.3385 13.6102 9.03711 12 9.03711V17.9746H14.2594C14.6477 17.9746 14.9625 17.6598 14.9625 17.2715Z" fill="#C9C9C9"/>
<path d="M21.0374 20.9871H2.9624C2.57409 20.9871 2.25928 20.6723 2.25928 20.284C2.25928 19.8956 2.57409 19.5808 2.9624 19.5808C3.40523 19.5808 3.76551 19.2205 3.76551 18.7777V17.2715C3.76551 16.8832 4.08032 16.5684 4.46864 16.5684H19.5312C19.9195 16.5684 20.2343 16.8832 20.2343 17.2715V18.7777C20.2343 19.2205 20.5946 19.5808 21.0374 19.5808C21.4257 19.5808 21.7405 19.8956 21.7405 20.284C21.7405 20.6723 21.4257 20.9871 21.0374 20.9871Z" fill="#BFBFBF"/>
<path d="M21.7406 20.284C21.7406 19.8956 21.4258 19.5808 21.0375 19.5808C20.5947 19.5808 20.2344 19.2205 20.2344 18.7777V17.2715C20.2344 16.8832 19.9196 16.5684 19.5313 16.5684H12V20.9871H21.0375C21.4258 20.9871 21.7406 20.6723 21.7406 20.284Z" fill="#B5B5B5"/>
<path d="M21.7907 24.0008H2.20947C1.82116 24.0008 1.50635 23.686 1.50635 23.2977V20.2852C1.50635 19.8968 1.82116 19.582 2.20947 19.582H21.7907C22.179 19.582 22.4938 19.8968 22.4938 20.2852V23.2977C22.4938 23.686 22.179 24.0008 21.7907 24.0008Z" fill="#A1A1A1"/>
<path d="M22.4937 23.2977V20.2852C22.4937 19.8968 22.1789 19.582 21.7906 19.582H12V24.0008H21.7906C22.1789 24.0008 22.4937 23.686 22.4937 23.2977Z" fill="#979797"/>
</svg>
