<svg width="24" height="24" viewBox="0 0 24 24" fill="none" xmlns="http://www.w3.org/2000/svg">
<path d="M12 10.4419C14.6893 10.4419 16.8694 8.26178 16.8694 5.5725C16.8694 2.88322 14.6893 0.703125 12 0.703125C9.31071 0.703125 7.13062 2.88322 7.13062 5.5725C7.13062 8.26178 9.31071 10.4419 12 10.4419Z" fill="#A1A1A1"/>
<path d="M16.8694 5.5725C16.8694 8.2575 14.685 10.4419 12 10.4419V0.703125C14.685 0.703125 16.8694 2.8875 16.8694 5.5725Z" fill="#979797"/>
<path d="M22.125 15.0938V17.9062C22.125 18.2944 21.81 18.6094 20.9531 18.6094H8.91796C8.99858 18.6094 8.21483 18.2944 8.21483 17.9062C8.21483 15.5258 8.22726 15.5424 8.17546 15.1983C8.11148 14.773 8.44044 14.3906 8.87062 14.3906H21.4219C21.81 14.3906 22.125 14.7056 22.125 15.0938Z" fill="#DDDDDD"/>
<path d="M22.125 15.0938V17.9062C22.125 18.2944 21.81 18.6094 20.9531 18.6094H12V14.3906H21.4219C21.81 14.3906 22.125 14.7056 22.125 15.0938Z" fill="#A1A1A1"/>
<path d="M9.15234 17.9062C9.15234 18.2944 8.83734 18.6094 8.44922 18.6094H2.57812C2.19 18.6094 1.875 18.2944 1.875 17.9062V11.5664C1.875 11.1783 2.19 10.8633 2.57812 10.8633H4.29187C5.46141 10.8633 6.59156 11.2847 7.47422 12.0502C8.3475 12.8072 8.92406 13.8506 9.09703 14.9878C9.16847 15.4668 9.15234 15.5394 9.15234 17.9062Z" fill="#A1A1A1"/>
<path d="M22.125 18.375V20.7188C22.125 21.1069 21.81 21.4219 21.4219 21.4219H2.57812C2.19 21.4219 1.875 21.1069 1.875 20.7188V18.375C1.875 17.9869 2.19 17.6719 2.57812 17.6719H21.4219C21.81 17.6719 22.125 17.9869 22.125 18.375Z" fill="#D3D3D3"/>
<path d="M22.125 18.375V20.7188C22.125 21.1069 21.81 21.4219 21.4219 21.4219H12V17.6719H21.4219C21.81 17.6719 22.125 17.9869 22.125 18.375Z" fill="#C9C9C9"/>
<path d="M14.0569 5.5725C14.0569 5.96062 13.7419 6.27562 13.3537 6.27562H12.7031V6.92625C12.7031 7.31437 12.3881 7.62937 12 7.62937C11.6119 7.62937 11.2969 7.31437 11.2969 6.92625V6.27562H10.6462C10.2581 6.27562 9.94312 5.96062 9.94312 5.5725C9.94312 5.18437 10.2581 4.86937 10.6462 4.86937H11.2969V4.21875C11.2969 3.83062 11.6119 3.51562 12 3.51562C12.3881 3.51562 12.7031 3.83062 12.7031 4.21875V4.86937H13.3537C13.7419 4.86937 14.0569 5.18437 14.0569 5.5725Z" fill="#ECF6FD"/>
<path d="M1.40625 9.45703C0.629578 9.45703 0 10.0866 0 10.8633V22.8964C0 23.1176 0.179344 23.2969 0.400547 23.2969H2.41195C2.63316 23.2969 2.8125 23.1176 2.8125 22.8964V10.8633C2.8125 10.0867 2.18292 9.45703 1.40625 9.45703Z" fill="#BFBFBF"/>
<path d="M22.5938 11.8008C21.8171 11.8008 21.1875 12.4304 21.1875 13.207V22.8964C21.1875 23.1176 21.3668 23.2969 21.588 23.2969H23.5995C23.8207 23.2969 24 23.1176 24 22.8964V13.207C24 12.4304 23.3704 11.8008 22.5938 11.8008Z" fill="#BFBFBF"/>
<path d="M12 7.62937V3.51562C12.3881 3.51562 12.7031 3.83062 12.7031 4.21875V4.86937H13.3538C13.7419 4.86937 14.0569 5.18437 14.0569 5.5725C14.0569 5.96062 13.7419 6.27562 13.3538 6.27562H12.7031V6.92625C12.7031 7.31437 12.3881 7.62937 12 7.62937Z" fill="#D6E8FE"/>
</svg>
