<svg width="20" height="24" viewBox="0 0 20 24" fill="none" xmlns="http://www.w3.org/2000/svg">
<path d="M17.125 1.96875H16.7031L10 2.4375L3.29688 1.96875H2.875C1.66019 1.96875 0.671875 2.95706 0.671875 4.17188V21.7969C0.671875 23.0117 1.66019 24 2.875 24H17.125C18.3398 24 19.3281 23.0117 19.3281 21.7969V4.17188C19.3281 2.95706 18.3398 1.96875 17.125 1.96875Z" fill="#3366FF"/>
<path d="M17.125 1.96875H16.7031L10 2.4375V24H17.125C18.3398 24 19.3281 23.0117 19.3281 21.7969V4.17188C19.3281 2.95706 18.3398 1.96875 17.125 1.96875Z" fill="#0040FF"/>
<path d="M3.29688 1.96875V20.625C3.29688 21.0133 3.61169 21.3281 4 21.3281H16C16.3883 21.3281 16.7031 21.0133 16.7031 20.625V1.96875H3.29688Z" fill="#F2F3FF"/>
<path d="M10 1.96875V21.3281H16C16.3883 21.3281 16.7031 21.0133 16.7031 20.625V1.96875H10Z" fill="#E3E7FF"/>
<path d="M13.8438 0.75H11.6551C11.2409 0.279609 10.6379 0 10 0C9.36208 0 8.75908 0.279609 8.34489 0.75H6.15625C5.76794 0.75 5.45312 1.06481 5.45312 1.45312V3.79688C5.45312 4.18519 5.76794 4.5 6.15625 4.5H13.8438C14.2321 4.5 14.5469 4.18519 14.5469 3.79688V1.45312C14.5469 1.06481 14.2321 0.75 13.8438 0.75Z" fill="#78777F"/>
<path d="M13.8438 0.75H11.6551C11.2409 0.279609 10.6379 0 10 0V4.5H13.8438C14.2321 4.5 14.5469 4.18519 14.5469 3.79688V1.45312C14.5469 1.06481 14.2321 0.75 13.8438 0.75Z" fill="#616169"/>
<path d="M11.5 8.67188H10.7031V7.875C10.7031 7.48669 10.3883 7.17188 10 7.17188C9.61169 7.17188 9.29688 7.48669 9.29688 7.875V8.67188H8.5C8.11169 8.67188 7.79688 8.98669 7.79688 9.375C7.79688 9.76331 8.11169 10.0781 8.5 10.0781H9.29688V10.875C9.29688 11.2633 9.61169 11.5781 10 11.5781C10.3883 11.5781 10.7031 11.2633 10.7031 10.875V10.0781H11.5C11.8883 10.0781 12.2031 9.76331 12.2031 9.375C12.2031 8.98669 11.8883 8.67188 11.5 8.67188Z" fill="#FF5C33"/>
<path d="M11.5 8.67188H10.7031V7.875C10.7031 7.48669 10.3883 7.17188 10 7.17188V11.5781C10.3883 11.5781 10.7031 11.2633 10.7031 10.875V10.0781H11.5C11.8883 10.0781 12.2031 9.76331 12.2031 9.375C12.2031 8.98669 11.8883 8.67188 11.5 8.67188Z" fill="#FF3300"/>
<path d="M12.25 15.3281H7.75C7.36169 15.3281 7.04688 15.0133 7.04688 14.625C7.04688 14.2367 7.36169 13.9219 7.75 13.9219H12.25C12.6383 13.9219 12.9531 14.2367 12.9531 14.625C12.9531 15.0133 12.6383 15.3281 12.25 15.3281Z" fill="#78777F"/>
<path d="M12.25 13.9219H10V15.3281H12.25C12.6383 15.3281 12.9531 15.0133 12.9531 14.625C12.9531 14.2367 12.6383 13.9219 12.25 13.9219Z" fill="#616169"/>
<path d="M12.25 17.9531H7.75C7.36169 17.9531 7.04688 17.6383 7.04688 17.25C7.04688 16.8617 7.36169 16.5469 7.75 16.5469H12.25C12.6383 16.5469 12.9531 16.8617 12.9531 17.25C12.9531 17.6383 12.6383 17.9531 12.25 17.9531Z" fill="#78777F"/>
<path d="M12.25 16.5469H10V17.9531H12.25C12.6383 17.9531 12.9531 17.6383 12.9531 17.25C12.9531 16.8617 12.6383 16.5469 12.25 16.5469Z" fill="#616169"/>
</svg>
